<?xml version="1.0" encoding="UTF-8" standalone="no"?>
<!-- Created with Inkscape (http://www.inkscape.org/) -->

<svg
   width="426mm"
   height="600mm"
   viewBox="0 0 426 600"
   version="1.1"
   id="svg338"
   xml:space="preserve"
   inkscape:version="1.2.2 (732a01da63, 2022-12-09)"
   sodipodi:docname="Zeichnung.svg"
   xmlns:inkscape="http://www.inkscape.org/namespaces/inkscape"
   xmlns:sodipodi="http://sodipodi.sourceforge.net/DTD/sodipodi-0.dtd"
   xmlns="http://www.w3.org/2000/svg"
   xmlns:svg="http://www.w3.org/2000/svg"><sodipodi:namedview
     id="namedview340"
     pagecolor="#ffffff"
     bordercolor="#666666"
     borderopacity="1.0"
     inkscape:showpageshadow="2"
     inkscape:pageopacity="0.0"
     inkscape:pagecheckerboard="0"
     inkscape:deskcolor="#d1d1d1"
     inkscape:document-units="mm"
     showgrid="false"
     showguides="true"
     inkscape:zoom="0.42627315"
     inkscape:cx="755.38419"
     inkscape:cy="917.25224"
     inkscape:window-width="1920"
     inkscape:window-height="1137"
     inkscape:window-x="1905"
     inkscape:window-y="1076"
     inkscape:window-maximized="1"
     inkscape:current-layer="layer1"><sodipodi:guide
       position="3,600"
       orientation="-1,0"
       id="guide354"
       inkscape:locked="false"
       inkscape:label=""
       inkscape:color="rgb(0,134,229)" /><sodipodi:guide
       position="0,597"
       orientation="0,1"
       id="guide356"
       inkscape:locked="false"
       inkscape:label=""
       inkscape:color="rgb(0,134,229)" /><sodipodi:guide
       position="423,600"
       orientation="-1,0"
       id="guide358"
       inkscape:locked="false"
       inkscape:label=""
       inkscape:color="rgb(0,134,229)" /><sodipodi:guide
       position="0,3"
       orientation="0,1"
       id="guide360"
       inkscape:locked="false"
       inkscape:label=""
       inkscape:color="rgb(0,134,229)" /><sodipodi:guide
       position="213,600"
       orientation="-1,0"
       id="guide737"
       inkscape:locked="false"
       inkscape:label=""
       inkscape:color="rgb(0,134,229)" /></sodipodi:namedview><defs
     id="defs335"><rect
       x="371.92285"
       y="1829.669"
       width="574.78865"
       height="704.99487"
       id="rect1947" /><rect
       x="49.133851"
       y="1969.1574"
       width="644.24934"
       height="215.49726"
       id="rect1941" /><rect
       x="110.25794"
       y="119.6416"
       width="1318.4035"
       height="1494.347"
       id="rect636" /><rect
       x="117.29568"
       y="1264.4475"
       width="1351.2463"
       height="872.67989"
       id="rect364" /><rect
       x="117.29568"
       y="1264.4475"
       width="1351.2463"
       height="872.67987"
       id="rect364-9" /><rect
       x="117.29568"
       y="1264.4475"
       width="1351.2463"
       height="872.67987"
       id="rect364-3" /><rect
       x="110.25794"
       y="119.6416"
       width="1318.4034"
       height="1494.347"
       id="rect636-6" /><rect
       x="49.13385"
       y="1969.1573"
       width="644.24933"
       height="215.49725"
       id="rect1941-7" /></defs><g
     inkscape:label="Ebene 1"
     inkscape:groupmode="layer"
     id="layer1"><g
       aria-label="VDHH"
       transform="matrix(0.26458333,0,0,0.26458333,107.37931,175.03448)"
       id="text362"
       style="font-size:192px;line-height:1.25;font-family:Alef;-inkscape-font-specification:Alef;text-align:center;letter-spacing:0px;word-spacing:0px;text-anchor:middle;white-space:pre;shape-inside:url(#rect364);fill:#5aa02c"><path
         d="m 570.295,1442.0098 q -7.488,0 -10.176,-7.68 l -39.168,-120 q -0.576,-1.728 -0.576,-2.496 0,-1.728 1.152,-2.88 1.344,-1.344 3.072,-1.344 h 24.192 q 3.264,0 4.992,1.536 1.92,1.344 2.496,3.264 l 26.688,84.48 26.688,-84.48 q 0.576,-1.92 2.304,-3.264 1.92,-1.536 5.184,-1.536 h 24.192 q 1.728,0 2.88,1.344 1.344,1.152 1.344,2.88 0,0.768 -0.576,2.496 l -39.168,120 q -2.688,7.68 -10.176,7.68 z"
         style="font-weight:bold;font-family:Rubik;-inkscape-font-specification:'Rubik Bold'"
         id="path462" /><path
         id="path464"
         style="font-weight:bold;font-family:Rubik;-inkscape-font-specification:'Rubik Bold'"
         d="M 668.40695 1307.6106 C 666.99895 1307.6106 665.78251 1308.1217 664.75851 1309.1457 C 663.73451 1310.1697 663.22335 1311.3862 663.22335 1312.7942 L 663.22335 1338.3293 L 698.74288 1338.3293 L 718.32687 1338.3293 C 726.51886 1338.3293 732.79128 1340.1857 737.14328 1343.8977 C 741.62327 1347.6097 744.0542 1353.1134 744.4382 1360.4094 C 744.6942 1367.3214 744.82296 1372.0584 744.82296 1374.6184 C 744.82296 1376.9224 744.6942 1381.7862 744.4382 1389.2102 C 743.7982 1403.9302 735.41579 1411.2903 719.28781 1411.2903 L 698.74288 1411.2903 L 698.74288 1366.677 L 663.22335 1366.677 L 663.22335 1436.8254 C 663.22335 1438.2334 663.73451 1439.4499 664.75851 1440.4739 C 665.78251 1441.4979 666.99895 1442.009 668.40695 1442.009 L 720.24679 1442.009 C 731.89478 1442.009 742.1355 1439.7703 750.96749 1435.2903 C 759.79949 1430.6823 766.70988 1424.3464 771.70187 1416.2825 C 776.82187 1408.2185 779.57568 1398.9386 779.95968 1388.4426 C 780.21568 1381.5306 780.3425 1377.0492 780.3425 1375.0012 C 780.3425 1372.9532 780.21568 1368.345 779.95968 1361.177 C 779.57568 1350.809 776.75846 1341.5945 771.51046 1333.5305 C 766.39047 1325.3385 759.28595 1319.0027 750.19796 1314.5227 C 741.23797 1309.9147 730.9358 1307.6106 719.28781 1307.6106 L 668.40695 1307.6106 z " /><path
         d="m 910.51875,1307.6098 q 2.112,0 3.648,1.536 1.536,1.536 1.536,3.648 v 124.032 q 0,2.112 -1.536,3.648 -1.536,1.536 -3.648,1.536 h -25.152 q -2.112,0 -3.648,-1.536 -1.536,-1.536 -1.536,-3.648 v -47.04 h -42.624 v 47.04 q 0,2.112 -1.536,3.648 -1.536,1.536 -3.648,1.536 h -25.152 q -2.112,0 -3.648,-1.344 -1.536,-1.536 -1.536,-3.84 v -124.032 q 0,-2.112 1.536,-3.648 1.536,-1.536 3.648,-1.536 h 25.152 q 2.112,0 3.648,1.536 1.536,1.536 1.536,3.648 v 46.272 h 42.624 v -46.272 q 0,-2.112 1.536,-3.648 1.536,-1.536 3.648,-1.536 z"
         style="font-weight:bold;font-family:Rubik;-inkscape-font-specification:'Rubik Bold'"
         id="path466" /><path
         d="m 1051.0628,1307.6098 q 2.112,0 3.648,1.536 1.536,1.536 1.536,3.648 v 124.032 q 0,2.112 -1.536,3.648 -1.536,1.536 -3.648,1.536 h -25.152 q -2.112,0 -3.648,-1.536 -1.536,-1.536 -1.536,-3.648 v -47.04 h -42.62398 v 47.04 q 0,2.112 -1.536,3.648 -1.536,1.536 -3.648,1.536 h -25.152 q -2.112,0 -3.648,-1.344 -1.536,-1.536 -1.536,-3.84 v -124.032 q 0,-2.112 1.536,-3.648 1.536,-1.536 3.648,-1.536 h 25.152 q 2.112,0 3.648,1.536 1.536,1.536 1.536,3.648 v 46.272 h 42.62398 v -46.272 q 0,-2.112 1.536,-3.648 1.536,-1.536 3.648,-1.536 z"
         style="font-weight:bold;font-family:Rubik;-inkscape-font-specification:'Rubik Bold'"
         id="path468" /></g><g
       aria-label="Verband des deutschen Holzhandwerks"
       transform="matrix(0.26458333,0,0,0.26458333,106.12875,231.17929)"
       id="text362-6"
       style="font-size:37.3333px;line-height:1.25;font-family:Alef;-inkscape-font-specification:Alef;text-align:center;letter-spacing:0px;word-spacing:0px;white-space:pre;shape-inside:url(#rect364-9);fill:#5aa02c"><path
         d="m 483.17832,1272.7598 h 3.59115 l -9.78906,26.2499 h -3.04427 l -9.80728,-26.2499 H 467.72 l 7.74739,22.039 z"
         id="path471" /><path
         d="m 506.07414,1297.916 q -2.02344,0.8021 -3.8099,1.1484 -1.76822,0.3464 -3.17187,0.3464 -2.15104,0 -3.7552,-0.6745 -1.60417,-0.6927 -2.67969,-1.9323 -1.05729,-1.2396 -1.60416,-2.9531 -0.52865,-1.7318 -0.52865,-3.8099 0,-1.276 0.18229,-2.5521 0.18229,-1.276 0.58334,-2.4245 0.40104,-1.1666 1.03906,-2.1692 0.65625,-1.0026 1.58593,-1.7318 0.92969,-0.7292 2.16927,-1.1484 1.23958,-0.4193 2.82552,-0.4193 4.0651,0 6.125,2.5521 2.05989,2.5338 2.05989,7.2734 v 1.0026 h -13.34374 q 0,1.5313 0.32813,2.7161 0.32812,1.1667 1.0026,1.987 0.69271,0.8021 1.73177,1.2214 1.05729,0.4193 2.49739,0.4193 0.80208,0 1.58594,-0.1094 0.80208,-0.1276 1.54948,-0.3099 0.74739,-0.2005 1.42187,-0.4375 0.69271,-0.237 1.29427,-0.4557 z m -2.13281,-10.0078 q -0.14584,-2.9531 -1.42188,-4.3021 -1.25781,-1.3672 -3.60937,-1.3672 -2.35156,0 -3.59114,1.3672 -1.22136,1.349 -1.47656,4.3021 z"
         id="path473" /><path
         d="m 515.38923,1284.4082 q 0.5651,-1.1302 1.20312,-2.0417 0.65625,-0.9114 1.44011,-1.5495 0.71093,-0.6197 1.5677,-0.9114 0.85677,-0.3099 1.95052,-0.3099 0.36459,0 0.83854,0.036 0.49219,0.036 0.92969,0.1277 -0.0729,0.9114 -0.18229,1.7135 -0.0911,0.8021 -0.25521,1.6224 -0.91146,-0.1641 -1.67708,-0.237 -0.7474,-0.073 -1.42187,0.036 -0.80209,0.1458 -1.40365,0.5468 -0.58333,0.3829 -1.09375,1.0391 -0.49218,0.638 -0.96614,1.5495 -0.47396,0.8932 -1.03906,2.0599 v 10.8828 h -3.13542 v -11.6849 q 0,-1.1484 -0.0365,-2.0234 -0.0182,-0.875 -0.10937,-1.6589 -0.0729,-0.8021 -0.23698,-1.5677 -0.16406,-0.7839 -0.4375,-1.7318 0.76562,-0.2005 1.49479,-0.3646 0.7474,-0.164 1.51302,-0.3099 0.25521,0.7292 0.40104,1.2943 0.16406,0.5651 0.25521,1.112 0.0911,0.5286 0.1276,1.0937 0.0547,0.5469 0.10938,1.2761 z"
         id="path475" /><path
         d="m 527.3111,1272.7233 h 3.13541 v 10.9193 l 0.38281,0.036 q 0.85677,-1.8958 2.02344,-2.8802 1.34895,-1.2031 3.26302,-1.2031 3.33593,0 5.10416,2.8073 1.58593,2.6067 1.58593,6.7265 0,5.0131 -2.38801,7.7292 -2.27865,2.5521 -6.74479,2.5521 -2.44271,0 -6.36197,-0.5834 z m 2.95312,15.0573 v 8.6041 q 1.67708,0.3464 3.40885,0.3464 2.95312,0 4.42968,-1.7318 1.53125,-1.7864 1.53125,-5.3047 0,-3.1901 -0.69271,-4.9218 -0.91145,-2.2787 -3.09895,-2.2787 -1.91406,0 -3.37239,1.6042 -1.02084,1.0937 -2.20573,3.6823 z"
         id="path477" /><path
         d="m 548.42045,1283.3691 -0.80208,-2.5521 q 3.0625,-1.2213 6.41666,-1.2213 2.93489,0 4.48437,0.9844 1.76823,1.1302 1.76823,3.8463 v 7.4557 q 0,1.4948 0.0365,3.0625 0.0182,0.9297 0.18229,1.9323 0.14583,0.9479 0.38281,1.8047 l -2.98958,0.6563 q -0.41927,-1.2214 -0.52864,-2.7344 l -0.36459,-0.036 q -2.26041,2.8438 -5.76041,2.8438 -2.55208,0 -4.10156,-1.4037 -1.54948,-1.4218 -1.54948,-3.9922 0,-1.914 0.83854,-3.1354 0.85677,-1.2213 2.40625,-2.0599 2.44271,-1.3307 6.83593,-1.3307 0.58334,0 1.56771,0.036 v -2.7709 q 0,-1.3125 -0.80208,-1.8958 -0.80208,-0.5833 -2.51562,-0.5833 -2.4974,0 -5.50521,1.0937 z m 8.82291,10.2813 v -3.8282 q -0.49219,-0.036 -1.4401,-0.036 -1.60417,0 -2.95312,0.2734 -2.00521,0.4011 -3.11719,1.2761 -1.09375,0.8567 -1.09375,2.4791 0,2.9167 3.17187,2.9167 1.64063,0 3.0625,-0.875 1.16667,-0.7292 2.36979,-2.2057 z"
         id="path479" /><path
         d="m 565.68346,1280.3431 3.02604,-0.6745 q 0.34635,1.0938 0.49219,2.1146 0.0729,0.4922 0.18229,1.9505 h 0.38281 q 1.0026,-1.8411 2.47916,-2.9349 1.6224,-1.2031 3.42708,-1.2031 2.71615,0 4.13802,1.3125 1.22135,1.112 1.69531,3.4088 0.3099,1.5677 0.3099,4.6667 v 9.9896 h -3.13542 v -10.8646 q 0,-2.7161 -0.52864,-3.8828 -0.78386,-1.7318 -3.15364,-1.7318 -1.67709,0 -3.28125,1.6042 -1.07552,1.0755 -2.29688,3.1536 v 11.7214 h -3.13541 v -11.6667 q 0,-2.4609 -0.1276,-4.2474 -0.0729,-1.1119 -0.47396,-2.7161 z"
         id="path481" /><path
         d="m 598.27718,1272.7233 h 3.13542 v 19.0859 q 0,3.2084 0.0911,4.211 0.0911,1.2395 0.41927,2.6614 l -3.02604,0.6745 q -0.30989,-1.0208 -0.45573,-2.0599 -0.18229,-1.276 -0.20052,-1.9688 h -0.27343 q -0.94792,1.9688 -2.09636,2.8985 -1.38541,1.1849 -3.42708,1.1849 -1.78645,0 -3.08072,-0.7656 -1.29427,-0.7839 -2.02344,-2.1693 -0.71094,-1.3854 -1.05729,-3.0443 -0.32813,-1.6588 -0.32813,-3.664 0,-2.2605 0.45573,-4.0651 0.47396,-1.8047 1.44011,-3.1901 0.96614,-1.4037 2.58854,-2.1511 1.62239,-0.7656 3.80989,-0.7656 1.71354,0 4.02864,0.4557 z m 0,18.5755 v -8.4766 q -2.05989,-0.5468 -3.79166,-0.5468 -1.47656,0 -2.55208,0.5468 -1.05729,0.5287 -1.65886,1.5131 -0.60156,0.9661 -0.875,2.1692 -0.27343,1.2032 -0.27343,2.698 0,1.0208 0.0365,1.8046 0.0547,0.7657 0.16406,1.6771 0.1276,0.8932 0.38281,1.5313 0.25521,0.638 0.63802,1.1849 0.38281,0.5468 0.98437,0.8385 0.6198,0.2734 1.42188,0.2734 1.93229,0 3.35416,-1.5494 1.02083,-1.1302 2.16927,-3.6641 z"
         id="path483" /><path
         d="m 629.32143,1272.7233 h 3.13542 v 19.0859 q 0,3.2084 0.0911,4.211 0.0911,1.2395 0.41927,2.6614 l -3.02604,0.6745 q -0.30989,-1.0208 -0.45573,-2.0599 -0.18229,-1.276 -0.20052,-1.9688 h -0.27343 q -0.94792,1.9688 -2.09636,2.8985 -1.38541,1.1849 -3.42708,1.1849 -1.78645,0 -3.08072,-0.7656 -1.29427,-0.7839 -2.02344,-2.1693 -0.71094,-1.3854 -1.05729,-3.0443 -0.32812,-1.6588 -0.32812,-3.664 0,-2.2605 0.45572,-4.0651 0.47396,-1.8047 1.44011,-3.1901 0.96614,-1.4037 2.58854,-2.1511 1.62239,-0.7656 3.80989,-0.7656 1.71354,0 4.02864,0.4557 z m 0,18.5755 v -8.4766 q -2.05989,-0.5468 -3.79166,-0.5468 -1.47656,0 -2.55208,0.5468 -1.05729,0.5287 -1.65886,1.5131 -0.60156,0.9661 -0.875,2.1692 -0.27343,1.2032 -0.27343,2.698 0,1.0208 0.0365,1.8046 0.0547,0.7657 0.16406,1.6771 0.1276,0.8932 0.38281,1.5313 0.25521,0.638 0.63802,1.1849 0.38281,0.5468 0.98437,0.8385 0.6198,0.2734 1.42188,0.2734 1.93229,0 3.35416,-1.5494 1.02084,-1.1302 2.16927,-3.6641 z"
         id="path485" /><path
         d="m 652.89172,1297.916 q -2.02344,0.8021 -3.8099,1.1484 -1.76822,0.3464 -3.17187,0.3464 -2.15104,0 -3.7552,-0.6745 -1.60417,-0.6927 -2.67969,-1.9323 -1.05729,-1.2396 -1.60416,-2.9531 -0.52865,-1.7318 -0.52865,-3.8099 0,-1.276 0.18229,-2.5521 0.18229,-1.276 0.58333,-2.4245 0.40105,-1.1666 1.03907,-2.1692 0.65625,-1.0026 1.58593,-1.7318 0.92969,-0.7292 2.16927,-1.1484 1.23958,-0.4193 2.82552,-0.4193 4.0651,0 6.12499,2.5521 2.0599,2.5338 2.0599,7.2734 v 1.0026 h -13.34374 q 0,1.5313 0.32812,2.7161 0.32813,1.1667 1.00261,1.987 0.69271,0.8021 1.73177,1.2214 1.05729,0.4193 2.49739,0.4193 0.80208,0 1.58594,-0.1094 0.80208,-0.1276 1.54947,-0.3099 0.7474,-0.2005 1.42188,-0.4375 0.69271,-0.237 1.29427,-0.4557 z m -2.13281,-10.0078 q -0.14584,-2.9531 -1.42188,-4.3021 -1.25781,-1.3672 -3.60937,-1.3672 -2.35156,0 -3.59114,1.3672 -1.22136,1.349 -1.47656,4.3021 z"
         id="path487" /><path
         d="m 664.43078,1279.5957 q 1.49479,0 2.98958,0.3099 1.51302,0.3099 2.80729,0.8568 -0.25521,0.5833 -0.52865,1.1484 -0.27344,0.5651 -0.60156,1.112 -0.45573,-0.1823 -1.02083,-0.3646 -0.54688,-0.1823 -1.16667,-0.3099 -0.60156,-0.1276 -1.25781,-0.2005 -0.63802,-0.091 -1.25781,-0.091 -0.67448,0 -1.3125,0.1459 -0.61979,0.1276 -1.11198,0.4375 -0.47396,0.3099 -0.76562,0.8203 -0.29167,0.4922 -0.29167,1.2396 0,0.7656 0.32812,1.2942 0.32813,0.5104 0.89323,0.8568 0.56511,0.3463 1.3125,0.5833 0.76563,0.237 1.6224,0.4375 1.33072,0.3281 2.47916,0.7474 1.14844,0.4011 1.98698,1.0573 0.83854,0.6563 1.3125,1.6224 0.47395,0.9662 0.47395,2.388 0,1.4948 -0.60156,2.5703 -0.58333,1.0756 -1.60416,1.7865 -1.00261,0.6927 -2.35156,1.0208 -1.34896,0.3464 -2.88021,0.3464 -0.80208,0 -1.65885,-0.1094 -0.83854,-0.091 -1.67708,-0.2917 -0.82032,-0.1823 -1.6224,-0.4557 -0.80208,-0.2734 -1.51302,-0.6016 0.25521,-0.5833 0.52865,-1.1302 0.29166,-0.5651 0.60156,-1.1119 0.60156,0.2552 1.27604,0.4921 0.67448,0.2188 1.38542,0.3829 0.71093,0.164 1.40364,0.2734 0.69271,0.091 1.33073,0.091 0.80208,0 1.54948,-0.1822 0.76562,-0.1823 1.34895,-0.5652 0.60157,-0.401 0.94792,-1.0208 0.36458,-0.6198 0.36458,-1.4948 0,-0.8203 -0.34635,-1.3489 -0.32813,-0.5287 -0.89323,-0.875 -0.5651,-0.3646 -1.33073,-0.5834 -0.74739,-0.2369 -1.58593,-0.4375 -1.27604,-0.3099 -2.42448,-0.7109 -1.13021,-0.401 -1.98698,-1.0391 -0.83854,-0.6562 -1.34896,-1.6041 -0.49218,-0.9662 -0.49218,-2.388 0,-1.3308 0.54687,-2.2969 0.54688,-0.9662 1.45833,-1.586 0.92969,-0.6197 2.13281,-0.9114 1.22136,-0.3099 2.55209,-0.3099 z"
         id="path489" /><path
         d="m 697.86304,1272.7233 h 3.13542 v 19.0859 q 0,3.2084 0.0911,4.211 0.0911,1.2395 0.41927,2.6614 l -3.02604,0.6745 q -0.30989,-1.0208 -0.45573,-2.0599 -0.18229,-1.276 -0.20052,-1.9688 h -0.27343 q -0.94792,1.9688 -2.09636,2.8985 -1.38541,1.1849 -3.42708,1.1849 -1.78645,0 -3.08072,-0.7656 -1.29427,-0.7839 -2.02344,-2.1693 -0.71094,-1.3854 -1.05729,-3.0443 -0.32812,-1.6588 -0.32812,-3.664 0,-2.2605 0.45572,-4.0651 0.47396,-1.8047 1.44011,-3.1901 0.96614,-1.4037 2.58854,-2.1511 1.62239,-0.7656 3.80989,-0.7656 1.71354,0 4.02864,0.4557 z m 0,18.5755 v -8.4766 q -2.05989,-0.5468 -3.79166,-0.5468 -1.47656,0 -2.55208,0.5468 -1.05729,0.5287 -1.65886,1.5131 -0.60156,0.9661 -0.87499,2.1692 -0.27344,1.2032 -0.27344,2.698 0,1.0208 0.0365,1.8046 0.0547,0.7657 0.16406,1.6771 0.1276,0.8932 0.38281,1.5313 0.25521,0.638 0.63802,1.1849 0.38281,0.5468 0.98438,0.8385 0.61979,0.2734 1.42187,0.2734 1.93229,0 3.35416,-1.5494 1.02084,-1.1302 2.16927,-3.6641 z"
         id="path491" /><path
         d="m 721.43333,1297.916 q -2.02344,0.8021 -3.8099,1.1484 -1.76822,0.3464 -3.17187,0.3464 -2.15104,0 -3.7552,-0.6745 -1.60417,-0.6927 -2.67969,-1.9323 -1.05729,-1.2396 -1.60416,-2.9531 -0.52865,-1.7318 -0.52865,-3.8099 0,-1.276 0.18229,-2.5521 0.18229,-1.276 0.58334,-2.4245 0.40104,-1.1666 1.03906,-2.1692 0.65625,-1.0026 1.58593,-1.7318 0.92969,-0.7292 2.16927,-1.1484 1.23958,-0.4193 2.82552,-0.4193 4.0651,0 6.125,2.5521 2.05989,2.5338 2.05989,7.2734 v 1.0026 h -13.34374 q 0,1.5313 0.32813,2.7161 0.32812,1.1667 1.0026,1.987 0.69271,0.8021 1.73177,1.2214 1.05729,0.4193 2.49739,0.4193 0.80208,0 1.58594,-0.1094 0.80208,-0.1276 1.54948,-0.3099 0.74739,-0.2005 1.42187,-0.4375 0.69271,-0.237 1.29427,-0.4557 z m -2.13281,-10.0078 q -0.14584,-2.9531 -1.42188,-4.3021 -1.25781,-1.3672 -3.60937,-1.3672 -2.35156,0 -3.59114,1.3672 -1.22136,1.349 -1.47656,4.3021 z"
         id="path493" /><path
         d="m 743.01663,1298.6452 -3.02604,0.6744 q -0.34635,-1.0937 -0.49218,-2.1145 -0.0729,-0.474 -0.18229,-1.9323 h -0.38282 q -1.0026,1.8411 -2.47916,2.9349 -1.6224,1.2031 -3.42708,1.2031 -2.71614,0 -4.13802,-1.3125 -1.22135,-1.112 -1.69531,-3.4089 -0.3099,-1.5677 -0.3099,-4.6666 v -10.0078 h 3.13542 v 10.8828 q 0,2.7161 0.52864,3.8828 0.78386,1.7317 3.15365,1.7317 1.67708,0 3.28124,-1.6041 1.07552,-1.0755 2.29688,-3.1537 v -11.7395 h 3.13541 v 11.7031 q 0,2.4245 0.12761,4.2109 0.0729,1.112 0.47395,2.7162 z"
         id="path495" /><path
         d="m 750.12602,1275.6764 h 3.13541 v 4.3386 h 6.38021 v 2.6432 h -6.38021 v 10.8828 q 0,1.0937 0.0547,1.6771 0.0729,0.5651 0.32813,0.8932 0.47395,0.6563 1.91406,0.6563 0.80208,0 1.54948,-0.1641 0.76562,-0.1641 1.40364,-0.3646 0.51042,1.112 0.92969,2.4427 -2.15104,0.7292 -4.33854,0.7292 -1.58594,0 -2.55208,-0.3646 -0.94792,-0.3464 -1.49479,-1.1484 -0.56511,-0.8386 -0.7474,-2.0052 -0.18229,-1.1667 -0.18229,-3.2266 v -10.0078 h -2.73437 v -2.6432 h 2.73437 z"
         id="path497" /><path
         d="m 769.77703,1279.5957 q 1.49479,0 2.98958,0.3099 1.51302,0.3099 2.80729,0.8568 -0.25521,0.5833 -0.52865,1.1484 -0.27343,0.5651 -0.60156,1.112 -0.45573,-0.1823 -1.02083,-0.3646 -0.54688,-0.1823 -1.16667,-0.3099 -0.60156,-0.1276 -1.25781,-0.2005 -0.63802,-0.091 -1.25781,-0.091 -0.67448,0 -1.3125,0.1459 -0.61979,0.1276 -1.11198,0.4375 -0.47396,0.3099 -0.76562,0.8203 -0.29167,0.4922 -0.29167,1.2396 0,0.7656 0.32813,1.2942 0.32812,0.5104 0.89323,0.8568 0.5651,0.3463 1.31249,0.5833 0.76563,0.237 1.6224,0.4375 1.33073,0.3281 2.47916,0.7474 1.14844,0.4011 1.98698,1.0573 0.83854,0.6563 1.3125,1.6224 0.47396,0.9662 0.47396,2.388 0,1.4948 -0.60156,2.5703 -0.58334,1.0756 -1.60417,1.7865 -1.0026,0.6927 -2.35156,1.0208 -1.34896,0.3464 -2.88021,0.3464 -0.80208,0 -1.65885,-0.1094 -0.83854,-0.091 -1.67708,-0.2917 -0.82031,-0.1823 -1.6224,-0.4557 -0.80208,-0.2734 -1.51302,-0.6016 0.25521,-0.5833 0.52865,-1.1302 0.29167,-0.5651 0.60156,-1.1119 0.60156,0.2552 1.27604,0.4921 0.67448,0.2188 1.38542,0.3829 0.71094,0.164 1.40364,0.2734 0.69271,0.091 1.33073,0.091 0.80208,0 1.54948,-0.1822 0.76562,-0.1823 1.34896,-0.5652 0.60156,-0.401 0.94791,-1.0208 0.36458,-0.6198 0.36458,-1.4948 0,-0.8203 -0.34635,-1.3489 -0.32812,-0.5287 -0.89323,-0.875 -0.5651,-0.3646 -1.33073,-0.5834 -0.74739,-0.2369 -1.58593,-0.4375 -1.27604,-0.3099 -2.42448,-0.7109 -1.13021,-0.401 -1.98698,-1.0391 -0.83854,-0.6562 -1.34895,-1.6041 -0.49219,-0.9662 -0.49219,-2.388 0,-1.3308 0.54687,-2.2969 0.54688,-0.9662 1.45834,-1.586 0.92968,-0.6197 2.13281,-0.9114 1.22135,-0.3099 2.55208,-0.3099 z"
         id="path499" /><path
         d="m 794.80566,1298.2988 q -1.42188,0.4922 -3.04427,0.8021 -1.60417,0.3099 -3.04427,0.3099 -2.1875,0 -3.79166,-0.638 -1.60417,-0.6381 -2.66146,-1.8594 -1.03906,-1.2214 -1.54948,-2.9896 -0.51041,-1.7865 -0.51041,-4.0651 0,-2.4792 0.61979,-4.3932 0.63802,-1.9141 1.82291,-3.2084 1.20313,-1.3125 2.91667,-1.9869 1.73177,-0.6745 3.91927,-0.6745 1.11197,0 2.26041,0.237 1.14844,0.2187 2.33333,0.5651 l -0.78385,2.5521 q -0.94792,-0.3099 -1.76823,-0.4922 -0.80208,-0.1823 -1.69531,-0.1823 -3.09896,0 -4.77604,1.8047 -1.67708,1.7864 -1.67708,5.414 0,1.6953 0.23698,3.0443 0.25521,1.3307 0.875,2.2786 0.63802,0.9297 1.71354,1.4219 1.09375,0.4922 2.77083,0.4922 1.09375,0 2.35156,-0.2734 1.27604,-0.2917 2.69791,-0.711 z"
         id="path501" /><path
         d="m 799.41764,1272.7233 h 3.13541 v 11.4297 q 1.22135,-2.0781 2.77083,-3.2448 1.76823,-1.3125 3.51823,-1.3125 2.625,0 4.08333,1.3125 1.25781,1.1302 1.73177,3.4088 0.36458,1.7318 0.36458,4.6667 v 9.9896 h -3.13541 v -10.8646 q 0,-1.112 -0.0547,-1.8229 -0.0547,-0.7292 -0.27344,-1.513 -0.20052,-0.8021 -0.60156,-1.2396 -0.38281,-0.4557 -1.09375,-0.7474 -0.69271,-0.2917 -1.69531,-0.2917 -1.73177,0 -3.33593,1.6406 -1.02084,1.0391 -2.27865,3.1719 v 11.6667 h -3.13541 z"
         id="path503" /><path
         d="m 834.59991,1297.916 q -2.02344,0.8021 -3.8099,1.1484 -1.76822,0.3464 -3.17187,0.3464 -2.15104,0 -3.7552,-0.6745 -1.60417,-0.6927 -2.67969,-1.9323 -1.05729,-1.2396 -1.60416,-2.9531 -0.52865,-1.7318 -0.52865,-3.8099 0,-1.276 0.18229,-2.5521 0.18229,-1.276 0.58334,-2.4245 0.40104,-1.1666 1.03906,-2.1692 0.65625,-1.0026 1.58593,-1.7318 0.92969,-0.7292 2.16927,-1.1484 1.23958,-0.4193 2.82552,-0.4193 4.0651,0 6.125,2.5521 2.05989,2.5338 2.05989,7.2734 v 1.0026 H 822.277 q 0,1.5313 0.32813,2.7161 0.32812,1.1667 1.0026,1.987 0.69271,0.8021 1.73177,1.2214 1.05729,0.4193 2.49739,0.4193 0.80208,0 1.58594,-0.1094 0.80208,-0.1276 1.54948,-0.3099 0.74739,-0.2005 1.42187,-0.4375 0.69271,-0.237 1.29427,-0.4557 z m -2.13281,-10.0078 q -0.14584,-2.9531 -1.42188,-4.3021 -1.25781,-1.3672 -3.60937,-1.3672 -2.35156,0 -3.59114,1.3672 -1.22136,1.349 -1.47656,4.3021 z"
         id="path505" /><path
         d="m 839.90457,1280.3431 3.02604,-0.6745 q 0.34635,1.0938 0.49218,2.1146 0.0729,0.4922 0.18229,1.9505 h 0.38282 q 1.0026,-1.8411 2.47916,-2.9349 1.6224,-1.2031 3.42708,-1.2031 2.71614,0 4.13802,1.3125 1.22135,1.112 1.69531,3.4088 0.3099,1.5677 0.3099,4.6667 v 9.9896 h -3.13542 v -10.8646 q 0,-2.7161 -0.52864,-3.8828 -0.78386,-1.7318 -3.15365,-1.7318 -1.67708,0 -3.28124,1.6042 -1.07552,1.0755 -2.29688,3.1536 v 11.7214 h -3.13541 v -11.6667 q 0,-2.4609 -0.12761,-4.2474 -0.0729,-1.1119 -0.47395,-2.7161 z"
         id="path507" /><path
         d="m 889.74307,1272.7598 h 3.42708 v 26.2135 h -3.42708 v -12.9974 h -14.0729 v 12.9974 h -3.42708 v -26.2135 h 3.42708 v 10.4088 h 14.0729 z"
         id="path509" /><path
         d="m 906.60503,1279.5957 q 0.89323,0 1.85937,0.1458 0.96615,0.1276 1.89583,0.5104 0.92969,0.4011 1.75,1.0938 0.83854,0.6745 1.47656,1.7682 0.63802,1.112 1.00261,2.6797 0.36458,1.5495 0.36458,3.7005 0,2.1511 -0.36458,3.7188 -0.36459,1.5494 -1.00261,2.6432 -0.63802,1.112 -1.47656,1.8047 -0.82031,0.6927 -1.75,1.0755 -0.92968,0.401 -1.89583,0.5286 -0.96614,0.1459 -1.85937,0.1459 -0.875,0 -1.84114,-0.1459 -0.94792,-0.1276 -1.87761,-0.5286 -0.92968,-0.3828 -1.75,-1.0755 -0.82031,-0.6927 -1.45833,-1.8047 -0.63802,-1.0938 -1.0026,-2.6432 -0.36458,-1.5677 -0.36458,-3.7188 0,-2.151 0.36458,-3.7005 0.36458,-1.5677 1.0026,-2.6797 0.63802,-1.0937 1.45833,-1.7682 0.82032,-0.6927 1.75,-1.0938 0.92969,-0.3828 1.87761,-0.5104 0.94791,-0.1458 1.84114,-0.1458 z m 0,2.5703 q -1.03906,0 -1.96875,0.3281 -0.91146,0.3281 -1.60416,1.1485 -0.71094,0.8385 -1.13021,2.2421 -0.41927,1.4037 -0.41927,3.6094 0,2.1875 0.41927,3.6094 0.41927,1.4036 1.13021,2.2239 0.6927,0.8386 1.60416,1.1667 0.92969,0.3099 1.96875,0.3099 1.05729,0 1.98698,-0.3099 0.94791,-0.3281 1.65885,-1.1667 0.71094,-0.8203 1.11198,-2.2239 0.41927,-1.4219 0.41927,-3.6094 0,-2.2057 -0.41927,-3.6094 -0.40104,-1.4036 -1.11198,-2.2421 -0.71094,-0.8204 -1.65885,-1.1485 -0.92969,-0.3281 -1.98698,-0.3281 z"
         id="path511" /><path
         d="m 922.46441,1291.6087 q 0,1.4948 0.0365,2.5156 0.0365,1.0026 0.0911,1.7683 0.0547,0.7656 0.16406,1.3854 0.12761,0.6198 0.3099,1.3672 -0.76562,0.2005 -1.53125,0.3645 -0.76562,0.1823 -1.53125,0.3099 -0.36458,-1.1849 -0.52864,-2.1692 -0.14584,-0.9844 -0.14584,-1.9323 v -22.4583 h 3.13542 z"
         id="path513" /><path
         d="m 932.72742,1282.6582 q -0.7474,0 -1.36719,-0.018 -0.61979,-0.018 -1.20312,-0.073 -0.56511,-0.073 -1.16667,-0.2187 -0.58333,-0.1458 -1.27604,-0.401 0.23698,-0.6563 0.45573,-1.2761 0.23698,-0.6198 0.47396,-1.3125 0.72916,0.237 1.29427,0.3646 0.5651,0.1276 1.11198,0.2005 0.54687,0.055 1.1302,0.073 0.58334,0.018 1.38542,0.018 h 7.65624 v 2.1875 l -9.51561,14.1276 h 9.67967 v 2.6432 h -13.59894 v -2.2057 l 9.49739,-14.1094 z"
         id="path515" /><path
         d="m 946.69095,1272.7233 h 3.13542 v 11.4297 q 1.22135,-2.0781 2.77083,-3.2448 1.76823,-1.3125 3.51822,-1.3125 2.625,0 4.08333,1.3125 1.25782,1.1302 1.73177,3.4088 0.36459,1.7318 0.36459,4.6667 v 9.9896 h -3.13542 v -10.8646 q 0,-1.112 -0.0547,-1.8229 -0.0547,-0.7292 -0.27343,-1.513 -0.20052,-0.8021 -0.60156,-1.2396 -0.38282,-0.4557 -1.09375,-0.7474 -0.69271,-0.2917 -1.69531,-0.2917 -1.73177,0 -3.33594,1.6406 -1.02083,1.0391 -2.27864,3.1719 v 11.6667 h -3.13542 z"
         id="path517" /><path
         d="m 968.80292,1283.3691 -0.80208,-2.5521 q 3.0625,-1.2213 6.41666,-1.2213 2.93489,0 4.48437,0.9844 1.76823,1.1302 1.76823,3.8463 v 7.4557 q 0,1.4948 0.0365,3.0625 0.0182,0.9297 0.18229,1.9323 0.14583,0.9479 0.38281,1.8047 l -2.98958,0.6563 q -0.41927,-1.2214 -0.52865,-2.7344 l -0.36458,-0.036 q -2.26041,2.8438 -5.76041,2.8438 -2.55208,0 -4.10156,-1.4037 -1.54948,-1.4218 -1.54948,-3.9922 0,-1.914 0.83854,-3.1354 0.85677,-1.2213 2.40625,-2.0599 2.44271,-1.3307 6.83593,-1.3307 0.58334,0 1.56771,0.036 v -2.7709 q 0,-1.3125 -0.80208,-1.8958 -0.80209,-0.5833 -2.51563,-0.5833 -2.49739,0 -5.5052,1.0937 z m 8.82291,10.2813 v -3.8282 q -0.49219,-0.036 -1.4401,-0.036 -1.60417,0 -2.95313,0.2734 -2.0052,0.4011 -3.11718,1.2761 -1.09375,0.8567 -1.09375,2.4791 0,2.9167 3.17187,2.9167 1.64063,0 3.0625,-0.875 1.16667,-0.7292 2.36979,-2.2057 z"
         id="path519" /><path
         d="m 986.06591,1280.3431 3.02604,-0.6745 q 0.34636,1.0938 0.49219,2.1146 0.0729,0.4922 0.18229,1.9505 h 0.38281 q 1.00261,-1.8411 2.47917,-2.9349 1.62239,-1.2031 3.42708,-1.2031 2.71614,0 4.13801,1.3125 1.2214,1.112 1.6953,3.4088 0.3099,1.5677 0.3099,4.6667 v 9.9896 h -3.1354 v -10.8646 q 0,-2.7161 -0.52865,-3.8828 -0.78385,-1.7318 -3.15364,-1.7318 -1.67708,0 -3.28125,1.6042 -1.07552,1.0755 -2.29687,3.1536 v 11.7214 h -3.13542 v -11.6667 q 0,-2.4609 -0.1276,-4.2474 -0.0729,-1.1119 -0.47396,-2.7161 z"
         id="path521" /><path
         d="m 1018.6596,1272.7233 h 3.1354 v 19.0859 q 0,3.2084 0.091,4.211 0.091,1.2395 0.4192,2.6614 l -3.026,0.6745 q -0.3099,-1.0208 -0.4557,-2.0599 -0.1823,-1.276 -0.2005,-1.9688 h -0.2735 q -0.9479,1.9688 -2.0963,2.8985 -1.3855,1.1849 -3.4271,1.1849 -1.7865,0 -3.0807,-0.7656 -1.2943,-0.7839 -2.0235,-2.1693 -0.7109,-1.3854 -1.0573,-3.0443 -0.3281,-1.6588 -0.3281,-3.664 0,-2.2605 0.4557,-4.0651 0.474,-1.8047 1.4401,-3.1901 0.9662,-1.4037 2.5886,-2.1511 1.6224,-0.7656 3.8099,-0.7656 1.7135,0 4.0286,0.4557 z m 0,18.5755 v -8.4766 q -2.0599,-0.5468 -3.7917,-0.5468 -1.4765,0 -2.552,0.5468 -1.0573,0.5287 -1.6589,1.5131 -0.6015,0.9661 -0.875,2.1692 -0.2734,1.2032 -0.2734,2.698 0,1.0208 0.036,1.8046 0.055,0.7657 0.1641,1.6771 0.1276,0.8932 0.3828,1.5313 0.2552,0.638 0.638,1.1849 0.3828,0.5468 0.9844,0.8385 0.6198,0.2734 1.4219,0.2734 1.9323,0 3.3541,-1.5494 1.0209,-1.1302 2.1693,-3.6641 z"
         id="path523" /><path
         d="m 1045.256,1298.9733 h -4.1745 l -2.2786,-8.8047 -3.6641,8.8047 h -4.1198 l -4.8489,-18.9766 h 3.1354 l 3.9922,16.6979 4.4114,-10.9375 -1.4765,-5.7604 h 3.1354 l 4.1015,16.6979 q 1.9688,-4.5573 2.7526,-6.8541 0.9479,-2.7891 0.9479,-4.7943 0,-1.75 -0.8567,-4.7213 1.6588,-0.4193 3.0078,-0.6745 0.7656,1.8776 0.9661,4.0468 0.055,0.5469 0.055,1.112 0,2.9896 -1.6771,6.9636 -0.4557,1.0573 -1.039,2.2786 -0.5651,1.2031 -1.349,2.8073 -0.7656,1.5859 -1.0208,2.1146 z"
         id="path525" /><path
         d="m 1069.4096,1297.916 q -2.0235,0.8021 -3.8099,1.1484 -1.7683,0.3464 -3.1719,0.3464 -2.151,0 -3.7552,-0.6745 -1.6042,-0.6927 -2.6797,-1.9323 -1.0573,-1.2396 -1.6042,-2.9531 -0.5286,-1.7318 -0.5286,-3.8099 0,-1.276 0.1823,-2.5521 0.1823,-1.276 0.5833,-2.4245 0.4011,-1.1666 1.0391,-2.1692 0.6562,-1.0026 1.5859,-1.7318 0.9297,-0.7292 2.1693,-1.1484 1.2396,-0.4193 2.8255,-0.4193 4.0651,0 6.125,2.5521 2.0599,2.5338 2.0599,7.2734 v 1.0026 h -13.3437 q 0,1.5313 0.3281,2.7161 0.3281,1.1667 1.0026,1.987 0.6927,0.8021 1.7318,1.2214 1.0573,0.4193 2.4974,0.4193 0.802,0 1.5859,-0.1094 0.8021,-0.1276 1.5495,-0.3099 0.7474,-0.2005 1.4218,-0.4375 0.6927,-0.237 1.2943,-0.4557 z m -2.1328,-10.0078 q -0.1459,-2.9531 -1.4219,-4.3021 -1.2578,-1.3672 -3.6094,-1.3672 -2.3515,0 -3.5911,1.3672 -1.2214,1.349 -1.4766,4.3021 z"
         id="path527" /><path
         d="m 1078.7247,1284.4082 q 0.5651,-1.1302 1.2031,-2.0417 0.6563,-0.9114 1.4401,-1.5495 0.711,-0.6197 1.5677,-0.9114 0.8568,-0.3099 1.9506,-0.3099 0.3645,0 0.8385,0.036 0.4922,0.036 0.9297,0.1277 -0.073,0.9114 -0.1823,1.7135 -0.091,0.8021 -0.2552,1.6224 -0.9115,-0.1641 -1.6771,-0.237 -0.7474,-0.073 -1.4219,0.036 -0.8021,0.1458 -1.4036,0.5468 -0.5833,0.3829 -1.0938,1.0391 -0.4922,0.638 -0.9661,1.5495 -0.474,0.8932 -1.0391,2.0599 v 10.8828 h -3.1354 v -11.6849 q 0,-1.1484 -0.036,-2.0234 -0.018,-0.875 -0.1094,-1.6589 -0.073,-0.8021 -0.237,-1.5677 -0.1641,-0.7839 -0.4375,-1.7318 0.7656,-0.2005 1.4948,-0.3646 0.7474,-0.164 1.513,-0.3099 0.2552,0.7292 0.4011,1.2943 0.164,0.5651 0.2552,1.112 0.091,0.5286 0.1276,1.0937 0.055,0.5469 0.1093,1.2761 z"
         id="path529" /><path
         d="m 1090.519,1272.7233 h 3.1354 v 15.7864 l 8.5312,-8.914 2.0599,2.0052 -7.3828,7.6016 9.3151,9.7708 h -3.901 l -8.6224,-9.1146 v 9.1146 h -3.1354 z"
         id="path531" /><path
         d="m 1115.0554,1279.5957 q 1.4948,0 2.9896,0.3099 1.513,0.3099 2.8073,0.8568 -0.2552,0.5833 -0.5287,1.1484 -0.2734,0.5651 -0.6015,1.112 -0.4558,-0.1823 -1.0209,-0.3646 -0.5468,-0.1823 -1.1666,-0.3099 -0.6016,-0.1276 -1.2578,-0.2005 -0.6381,-0.091 -1.2578,-0.091 -0.6745,0 -1.3125,0.1459 -0.6198,0.1276 -1.112,0.4375 -0.474,0.3099 -0.7657,0.8203 -0.2916,0.4922 -0.2916,1.2396 0,0.7656 0.3281,1.2942 0.3281,0.5104 0.8932,0.8568 0.5651,0.3463 1.3125,0.5833 0.7657,0.237 1.6224,0.4375 1.3308,0.3281 2.4792,0.7474 1.1484,0.4011 1.987,1.0573 0.8385,0.6563 1.3125,1.6224 0.4739,0.9662 0.4739,2.388 0,1.4948 -0.6015,2.5703 -0.5834,1.0756 -1.6042,1.7865 -1.0026,0.6927 -2.3516,1.0208 -1.3489,0.3464 -2.8802,0.3464 -0.802,0 -1.6588,-0.1094 -0.8386,-0.091 -1.6771,-0.2917 -0.8203,-0.1823 -1.6224,-0.4557 -0.8021,-0.2734 -1.513,-0.6016 0.2552,-0.5833 0.5286,-1.1302 0.2917,-0.5651 0.6016,-1.1119 0.6016,0.2552 1.276,0.4921 0.6745,0.2188 1.3854,0.3829 0.711,0.164 1.4037,0.2734 0.6927,0.091 1.3307,0.091 0.8021,0 1.5495,-0.1822 0.7656,-0.1823 1.349,-0.5652 0.6015,-0.401 0.9479,-1.0208 0.3646,-0.6198 0.3646,-1.4948 0,-0.8203 -0.3464,-1.3489 -0.3281,-0.5287 -0.8932,-0.875 -0.5651,-0.3646 -1.3308,-0.5834 -0.7473,-0.2369 -1.5859,-0.4375 -1.276,-0.3099 -2.4245,-0.7109 -1.1302,-0.401 -1.9869,-1.0391 -0.8386,-0.6562 -1.349,-1.6041 -0.4922,-0.9662 -0.4922,-2.388 0,-1.3308 0.5469,-2.2969 0.5469,-0.9662 1.4583,-1.586 0.9297,-0.6197 2.1328,-0.9114 1.2214,-0.3099 2.5521,-0.3099 z"
         id="path533" /></g><path
       id="rect791"
       style="stroke-width:0.0978625;paint-order:fill markers stroke;stop-color:#000000"
       d="M 29.697758,14.946697 H 394.2048 c 9.83155,0 17.74648,7.91493 17.74648,17.746479 V 177.20022 c 0,9.83155 -7.91493,17.74648 -17.74648,17.74648 h -25.35997 c 0,0 -8.20175,-0.6248 -9.21923,1.59173 0.2257,18.31691 25.17423,33.03081 38.85716,42.01172 0,0 -11.16917,-2.36868 -22.20608,-6.15736 -6.37928,-2.18983 -12.71438,-4.85405 -16.82304,-7.80947 C 349.2439,217.2393 336.10345,194.9467 336.10345,194.9467 H 29.697758 c -9.83155,0 -17.746479,-7.91493 -17.746479,-17.74648 V 32.693176 c 0,-9.831549 7.914929,-17.746479 17.746479,-17.746479 z"
       sodipodi:nodetypes="ssssscccsscssss" /><path
       id="rect791-9"
       style="fill:#5aa02c;fill-opacity:1;stroke-width:0.0978625;paint-order:fill markers stroke;stop-color:#000000"
       d="M 395.25352,267.97647 H 30.746478 c -9.83155,0 -17.74648,7.91493 -17.74648,17.74648 v 144.50704 c 0,9.83155 7.91493,17.74648 17.74648,17.74648 h 25.35997 c 0,0 8.20175,-0.6248 9.21923,1.59173 -0.2257,18.31691 -25.17423,33.03081 -38.85716,42.01172 0,0 27.81199,-5.89818 39.02912,-13.96683 10.20974,-7.34402 23.35019,-29.63662 23.35019,-29.63662 H 395.25352 c 9.83155,0 17.74648,-7.91493 17.74648,-17.74648 V 285.72295 c 0,-9.83155 -7.91493,-17.74648 -17.74648,-17.74648 z"
       sodipodi:nodetypes="ssssscccscssss" /><text
       xml:space="preserve"
       transform="matrix(0.30145118,0,0,0.30319534,-4.573237,-6.7336415)"
       id="text634"
       style="font-style:normal;font-variant:normal;font-weight:normal;font-stretch:normal;font-size:96px;line-height:1.25;font-family:Alef;-inkscape-font-specification:Alef;font-variant-ligatures:normal;font-variant-caps:normal;font-variant-numeric:normal;font-feature-settings:normal;text-align:center;letter-spacing:0px;word-spacing:0px;writing-mode:lr-tb;white-space:pre;shape-inside:url(#rect636);display:inline;fill:#ffffff;fill-opacity:1;stroke:none"
       x="-604.84808"
       y="0"><tspan
         x="110.25781"
         y="208.42188"
         id="tspan4325"><tspan
           style="font-weight:bold;font-family:Rubik;-inkscape-font-specification:'Rubik Bold';text-align:start"
           id="tspan4323">Wenn Sie kein </tspan></tspan><tspan
         x="110.25781"
         y="331.35696"
         id="tspan4329"><tspan
           style="font-weight:bold;font-family:Rubik;-inkscape-font-specification:'Rubik Bold';text-align:start"
           id="tspan4327">Impostersyndrom haben, </tspan></tspan><tspan
         x="110.25781"
         y="454.29205"
         id="tspan4333"><tspan
           style="font-weight:bold;font-family:Rubik;-inkscape-font-specification:'Rubik Bold';text-align:start"
           id="tspan4331">machen Sie dann </tspan></tspan><tspan
         x="110.25781"
         y="577.22714"
         id="tspan4337"><tspan
           style="font-weight:bold;font-family:Rubik;-inkscape-font-specification:'Rubik Bold';text-align:start"
           id="tspan4335">überhaupt richtig IT?</tspan></tspan></text><g
       aria-label="VDHH"
       transform="matrix(0.26458333,0,0,0.26458333,-72.51683,-19.65897)"
       id="text362-9"
       style="font-size:192px;line-height:1.25;font-family:Alef;-inkscape-font-specification:Alef;text-align:center;letter-spacing:0px;word-spacing:0px;text-anchor:middle;white-space:pre;shape-inside:url(#rect364);fill:#5aa02c"><path
         d="m 570.295,1442.0098 q -7.488,0 -10.176,-7.68 l -39.168,-120 q -0.576,-1.728 -0.576,-2.496 0,-1.728 1.152,-2.88 1.344,-1.344 3.072,-1.344 h 24.192 q 3.264,0 4.992,1.536 1.92,1.344 2.496,3.264 l 26.688,84.48 26.688,-84.48 q 0.576,-1.92 2.304,-3.264 1.92,-1.536 5.184,-1.536 h 24.192 q 1.728,0 2.88,1.344 1.344,1.152 1.344,2.88 0,0.768 -0.576,2.496 l -39.168,120 q -2.688,7.68 -10.176,7.68 z"
         style="font-weight:bold;font-family:Rubik;-inkscape-font-specification:'Rubik Bold'"
         id="path462-1" /><path
         id="path464-8"
         style="font-weight:bold;font-family:Rubik;-inkscape-font-specification:'Rubik Bold'"
         d="m 668.40695,1307.6106 c -1.408,0 -2.62444,0.5111 -3.64844,1.5351 -1.024,1.024 -1.53516,2.2405 -1.53516,3.6485 v 25.5351 h 35.51953 19.58399 c 8.19199,0 14.46441,1.8564 18.81641,5.5684 4.47999,3.712 6.91092,9.2157 7.29492,16.5117 0.256,6.912 0.38476,11.649 0.38476,14.209 0,2.304 -0.12876,7.1678 -0.38476,14.5918 -0.64,14.72 -9.02241,22.0801 -25.15039,22.0801 h -20.54493 v -44.6133 h -35.51953 v 70.1484 c 0,1.408 0.51116,2.6245 1.53516,3.6485 1.024,1.024 2.24044,1.5351 3.64844,1.5351 h 51.83984 c 11.64799,0 21.88871,-2.2387 30.7207,-6.7187 8.832,-4.608 15.74239,-10.9439 20.73438,-19.0078 5.12,-8.064 7.87381,-17.3439 8.25781,-27.8399 0.256,-6.912 0.38282,-11.3934 0.38282,-13.4414 0,-2.048 -0.12682,-6.6562 -0.38282,-13.8242 -0.384,-10.368 -3.20122,-19.5825 -8.44922,-27.6465 -5.11999,-8.192 -12.22451,-14.5278 -21.3125,-19.0078 -8.95999,-4.608 -19.26216,-6.9121 -30.91015,-6.9121 z" /><path
         d="m 910.51875,1307.6098 q 2.112,0 3.648,1.536 1.536,1.536 1.536,3.648 v 124.032 q 0,2.112 -1.536,3.648 -1.536,1.536 -3.648,1.536 h -25.152 q -2.112,0 -3.648,-1.536 -1.536,-1.536 -1.536,-3.648 v -47.04 h -42.624 v 47.04 q 0,2.112 -1.536,3.648 -1.536,1.536 -3.648,1.536 h -25.152 q -2.112,0 -3.648,-1.344 -1.536,-1.536 -1.536,-3.84 v -124.032 q 0,-2.112 1.536,-3.648 1.536,-1.536 3.648,-1.536 h 25.152 q 2.112,0 3.648,1.536 1.536,1.536 1.536,3.648 v 46.272 h 42.624 v -46.272 q 0,-2.112 1.536,-3.648 1.536,-1.536 3.648,-1.536 z"
         style="font-weight:bold;font-family:Rubik;-inkscape-font-specification:'Rubik Bold'"
         id="path466-6" /><path
         d="m 1051.0628,1307.6098 q 2.112,0 3.648,1.536 1.536,1.536 1.536,3.648 v 124.032 q 0,2.112 -1.536,3.648 -1.536,1.536 -3.648,1.536 h -25.152 q -2.112,0 -3.648,-1.536 -1.536,-1.536 -1.536,-3.648 v -47.04 h -42.62398 v 47.04 q 0,2.112 -1.536,3.648 -1.536,1.536 -3.648,1.536 h -25.152 q -2.112,0 -3.648,-1.344 -1.536,-1.536 -1.536,-3.84 v -124.032 q 0,-2.112 1.536,-3.648 1.536,-1.536 3.648,-1.536 h 25.152 q 2.112,0 3.648,1.536 1.536,1.536 1.536,3.648 v 46.272 h 42.62398 v -46.272 q 0,-2.112 1.536,-3.648 1.536,-1.536 3.648,-1.536 z"
         style="font-weight:bold;font-family:Rubik;-inkscape-font-specification:'Rubik Bold'"
         id="path468-3" /></g><text
       xml:space="preserve"
       transform="matrix(0.34265577,0,0,0.34265577,-51.038193,254.13117)"
       id="text634-0"
       style="font-style:normal;font-variant:normal;font-weight:normal;font-stretch:normal;font-size:96px;line-height:1.25;font-family:Alef;-inkscape-font-specification:Alef;font-variant-ligatures:normal;font-variant-caps:normal;font-variant-numeric:normal;font-feature-settings:normal;text-align:center;letter-spacing:0px;word-spacing:0px;writing-mode:lr-tb;white-space:pre;shape-inside:url(#rect636-6);display:inline;fill:#ffffff;fill-opacity:1;stroke:none"
       x="-604.84808"
       y="0"><tspan
         x="364.05219"
         y="208.42188"
         id="tspan4341"><tspan
           style="font-family:Rubik;-inkscape-font-specification:Rubik"
           id="tspan4339">Gib dich nicht auf.
</tspan></tspan><tspan
         x="269.73209"
         y="331.35696"
         id="tspan4345"><tspan
           style="font-family:Rubik;-inkscape-font-specification:Rubik"
           id="tspan4343">Lern was anständiges.
</tspan></tspan><tspan
         x="349.12405"
         y="454.29205"
         id="tspan4351"><tspan
           style="font-family:Rubik;-inkscape-font-specification:Rubik"
           id="tspan4347">Mach </tspan><tspan
           style="font-family:Rubik;-inkscape-font-specification:Rubik"
           id="tspan4349">#WasMitHolz</tspan></tspan></text><g
       aria-label="&gt; Loge deutscher Bastardoperator"
       transform="matrix(0.26458333,0,0,0.26458333,1.2298464,44.765848)"
       id="text1939-4"
       style="font-size:32px;line-height:1.25;font-family:Alef;-inkscape-font-specification:Alef;text-align:center;letter-spacing:0px;word-spacing:0px;white-space:pre;shape-inside:url(#rect1941-7)"><path
         d="m 66.383789,1992.7988 11.15625,-5.3437 -11.15625,-5.3438 v -2.5 l 14.421875,7.0469 v 1.5938 l -14.421875,7.0468 z"
         style="font-family:'Borg Sans Mono';-inkscape-font-specification:'Borg Sans Mono'"
         id="path4010" /><path
         d="m 106.05566,1998.752 v -22.8438 h 2.92188 v 20.25 h 9.92187 v 2.5938 z"
         style="font-family:'Borg Sans Mono';-inkscape-font-specification:'Borg Sans Mono'"
         id="path4012" /><path
         d="m 131.14941,1999.0645 q -3.375,0 -5.5625,-2.4219 -2.17187,-2.4375 -2.17187,-6.5 0,-4.1094 2.10937,-6.4844 2.125,-2.375 5.71875,-2.375 3.40625,0 5.57813,2.4219 2.17187,2.4219 2.17187,6.4375 0,4.1406 -2.14062,6.5312 -2.14063,2.3907 -5.70313,2.3907 z m 0.0625,-2.3594 q 4.84375,0 4.84375,-6.5625 0,-6.5 -4.875,-6.5 -4.82812,0 -4.82812,6.5 0,6.5625 4.85937,6.5625 z"
         style="font-family:'Borg Sans Mono';-inkscape-font-specification:'Borg Sans Mono'"
         id="path4014" /><path
         d="m 158.41504,1981.5957 v 1.7656 l -3.0625,0.4219 q 1.01562,1.3281 1.01562,3.3281 0,2.5157 -1.67187,4.0157 -1.65625,1.4843 -4.625,1.4843 -0.85938,0 -1.34375,-0.094 -1.5625,0.875 -1.5625,2.0781 0,1.3125 2.51562,1.3125 h 2.92188 q 2.71875,0 4.15625,1.2031 1.4375,1.2032 1.4375,3.4375 0,5.8907 -8.82813,5.8907 -3.40625,0 -5.1875,-1.2657 -1.76562,-1.25 -1.76562,-3.5156 0,-3.3125 3.75,-4.2187 -1.5,-0.7344 -1.5,-2.4063 0,-1.75 2.07812,-3 -1.39062,-0.5781 -2.1875,-1.9062 -0.79687,-1.3438 -0.79687,-2.9219 0,-2.8438 1.65625,-4.375 1.67187,-1.5469 4.75,-1.5469 1.34375,0 2.34375,0.3125 z m -8.3125,9.0625 q 3.48437,0 3.48437,-3.5937 0,-3.7344 -3.51562,-3.7344 -3.51563,0 -3.51563,3.7812 0,3.5469 3.54688,3.5469 z m 1.53125,7.8125 h -2.9375 q -3.59375,0 -3.59375,3.0938 0,2.7187 4.23437,2.7187 6.17188,0 6.17188,-3.4844 0,-1.375 -0.78125,-1.8593 -0.78125,-0.4688 -3.09375,-0.4688 z"
         style="font-family:'Borg Sans Mono';-inkscape-font-specification:'Borg Sans Mono'"
         id="path4016" /><path
         d="m 177.14941,1990.7207 h -12.09375 q 0.125,5.8594 5.375,5.8594 3.04688,0 5.78125,-1.1875 v 2.5 q -2.59375,1.1719 -5.6875,1.1719 -3.82812,0 -6.125,-2.3282 -2.29687,-2.3437 -2.29687,-6.4375 0,-4.1562 2.10937,-6.5781 2.125,-2.4375 5.67188,-2.4375 3.3125,0 5.28125,2.0938 1.98437,2.0937 1.98437,5.5781 z m -12.03125,-2.3125 h 8.95313 q 0,-4.7656 -4.25,-4.7656 -4.29688,0 -4.70313,4.7656 z"
         style="font-family:'Borg Sans Mono';-inkscape-font-specification:'Borg Sans Mono'"
         id="path4018" /><path
         d="m 212.44629,1996.4551 h -0.125 q -1.76563,2.6094 -5.03125,2.6094 -3.14063,0 -4.9375,-2.3282 -1.78125,-2.3437 -1.78125,-6.5312 0,-4.2188 1.79687,-6.5625 1.79688,-2.3594 4.92188,-2.3594 3.21875,0 5.03125,2.5 h 0.1875 q -0.1875,-2.0156 -0.1875,-2.5312 v -6.8125 h 2.84375 v 24.3125 h -2.29688 z m -0.125,-5.6094 v -0.6406 q 0,-3.5469 -1.09375,-5.0469 -1.07813,-1.5156 -3.45313,-1.5156 -4.25,0 -4.25,6.5937 0,6.4688 4.28125,6.4688 2.375,0 3.40625,-1.375 1.04688,-1.3906 1.10938,-4.4844 z"
         style="font-family:'Borg Sans Mono';-inkscape-font-specification:'Borg Sans Mono'"
         id="path4020" /><path
         d="m 234.75879,1990.7207 h -12.09375 q 0.125,5.8594 5.375,5.8594 3.04687,0 5.78125,-1.1875 v 2.5 q -2.59375,1.1719 -5.6875,1.1719 -3.82813,0 -6.125,-2.3282 -2.29688,-2.3437 -2.29688,-6.4375 0,-4.1562 2.10938,-6.5781 2.125,-2.4375 5.67187,-2.4375 3.3125,0 5.28125,2.0938 1.98438,2.0937 1.98438,5.5781 z m -12.03125,-2.3125 h 8.95312 q 0,-4.7656 -4.25,-4.7656 -4.29687,0 -4.70312,4.7656 z"
         style="font-family:'Borg Sans Mono';-inkscape-font-specification:'Borg Sans Mono'"
         id="path4022" /><path
         d="m 251.24316,1998.752 -0.42187,-2.2969 h -0.15625 q -1.64063,2.6094 -5.21875,2.6094 -6.10938,0 -6.10938,-6.2657 v -11.2031 h 2.84375 v 11.0469 q 0,4.0625 3.6875,4.0625 2.51563,0 3.67188,-1.4375 1.15625,-1.4531 1.15625,-4.7656 v -8.9063 h 2.84375 v 17.1563 z"
         style="font-family:'Borg Sans Mono';-inkscape-font-specification:'Borg Sans Mono'"
         id="path4024" /><path
         d="m 271.97754,1996.4082 v 2.1563 q -2.03125,0.5 -3.9375,0.5 -5.65625,0 -5.65625,-5.375 v -9.9532 h -4.17188 v -1.4687 l 4.17188,-0.7656 1.20312,-4.4844 h 1.64063 v 4.5781 h 6.84375 v 2.1406 h -6.84375 v 9.9532 q 0,3.0468 3,3.0468 1.45312,0 3.75,-0.3281 z"
         style="font-family:'Borg Sans Mono';-inkscape-font-specification:'Borg Sans Mono'"
         id="path4026" /><path
         d="m 278.41504,1997.9863 v -2.5937 q 3.01562,1.3437 5.78125,1.3437 4.29687,0 4.29687,-2.5312 0,-0.8906 -0.76562,-1.5469 -0.76563,-0.6562 -3.53125,-1.6562 -3.64063,-1.3594 -4.59375,-2.4844 -0.9375,-1.1406 -0.9375,-2.6875 0,-2.125 1.73437,-3.3281 1.75,-1.2188 4.82813,-1.2188 3.09375,0 5.76562,1.1563 l -0.9375,2.3281 q -2.84375,-1.125 -4.98437,-1.125 -3.6875,0 -3.6875,2.0781 0,0.9531 0.78125,1.5313 0.79687,0.5625 3.64062,1.5781 3.29688,1.2031 4.375,2.375 1.09375,1.1562 1.09375,2.8437 0,2.3438 -1.82812,3.6875 -1.82813,1.3282 -5.17188,1.3282 -3.875,0 -5.85937,-1.0782 z"
         style="font-family:'Borg Sans Mono';-inkscape-font-specification:'Borg Sans Mono'"
         id="path4028" /><path
         d="m 311.02441,1982.2051 -0.96875,2.4687 q -2.34375,-0.8906 -4.1875,-0.8906 -5.79687,0 -5.79687,6.4531 0,6.3438 5.64062,6.3438 2.45313,0 5.01563,-0.9688 v 2.5 q -2.09375,0.9532 -5.14063,0.9532 -4.01562,0 -6.23437,-2.2657 -2.21875,-2.2812 -2.21875,-6.5312 0,-4.3906 2.26562,-6.6875 2.26563,-2.2969 6.375,-2.2969 2.78125,0 5.25,0.9219 z"
         style="font-family:'Borg Sans Mono';-inkscape-font-specification:'Borg Sans Mono'"
         id="path4030" /><path
         d="m 327.50879,1998.752 v -11.0469 q 0,-4.0625 -3.71875,-4.0625 -4.79688,0 -4.79688,6.2187 v 8.8907 h -2.84375 v -24.3125 h 2.84375 v 7.2187 l -0.125,2.25 h 0.15625 q 1.60938,-2.625 5.25,-2.625 6.07813,0 6.07813,6.2656 v 11.2032 z"
         style="font-family:'Borg Sans Mono';-inkscape-font-specification:'Borg Sans Mono'"
         id="path4032" /><path
         d="m 349.97754,1990.7207 h -12.09375 q 0.125,5.8594 5.375,5.8594 3.04687,0 5.78125,-1.1875 v 2.5 q -2.59375,1.1719 -5.6875,1.1719 -3.82813,0 -6.125,-2.3282 -2.29688,-2.3437 -2.29688,-6.4375 0,-4.1562 2.10938,-6.5781 2.125,-2.4375 5.67187,-2.4375 3.3125,0 5.28125,2.0938 1.98438,2.0937 1.98438,5.5781 z m -12.03125,-2.3125 h 8.95312 q 0,-4.7656 -4.25,-4.7656 -4.29687,0 -4.70312,4.7656 z"
         style="font-family:'Borg Sans Mono';-inkscape-font-specification:'Borg Sans Mono'"
         id="path4034" /><path
         d="m 368.60254,1981.9863 -0.76563,2.5938 q -1.92187,-0.7031 -3.5,-0.7031 -2.54687,0 -3.9375,1.4531 -1.375,1.4375 -1.375,4.1719 v 9.25 h -2.84375 v -17.1563 h 2.3125 l 0.34375,3.1406 h 0.125 q 1.1875,-1.8593 2.54688,-2.6562 1.35937,-0.7969 3.34375,-0.7969 1.84375,0 3.75,0.7031 z"
         style="font-family:'Borg Sans Mono';-inkscape-font-specification:'Borg Sans Mono'"
         id="path4036" /><path
         d="m 392.57129,1975.9082 h 6.875 q 4.28125,0 6.20312,1.375 1.9375,1.3594 1.9375,4.4063 0,2 -1.23437,3.3281 -1.21875,1.3281 -3.3125,1.6094 v 0.1562 q 5.1875,0.8438 5.1875,5.3438 0,3.0937 -2,4.8593 -1.98438,1.7657 -5.42188,1.7657 h -8.23437 z m 2.92187,9.6875 h 4.4375 q 2.4375,0 3.54688,-0.8594 1.125,-0.8593 1.125,-2.8437 0,-1.875 -1.20313,-2.6875 -1.1875,-0.8125 -3.78125,-0.8125 h -4.125 z m 0,2.4375 v 8.25 h 4.79688 q 4.85937,0 4.85937,-4.2812 0,-3.9688 -5.0625,-3.9688 z"
         style="font-family:'Borg Sans Mono';-inkscape-font-specification:'Borg Sans Mono'"
         id="path4038" /><path
         d="m 423.64941,1998.752 -0.57812,-2.375 h -0.125 q -1.20313,1.5156 -2.46875,2.1093 -1.26563,0.5782 -3.26563,0.5782 -2.54687,0 -4,-1.3438 -1.4375,-1.3437 -1.4375,-3.7656 0,-5.1875 7.96875,-5.4375 l 3.17188,-0.1094 v -1.0781 q 0,-3.6875 -3.8125,-3.6875 -2.29688,0 -5.125,1.2812 l -0.98438,-2.1406 q 3.0625,-1.5 5.98438,-1.5 3.54687,0 5.125,1.3594 1.59375,1.3594 1.59375,4.3594 v 11.75 z m -0.76562,-8.3907 -2.53125,0.1094 q -3.0625,0.125 -4.34375,0.9688 -1.28125,0.8281 -1.28125,2.5468 0,2.7813 3.125,2.7813 2.29687,0 3.65625,-1.2656 1.375,-1.2813 1.375,-3.5938 z"
         style="font-family:'Borg Sans Mono';-inkscape-font-specification:'Borg Sans Mono'"
         id="path4040" /><path
         d="m 432.04004,1997.9863 v -2.5937 q 3.01562,1.3437 5.78125,1.3437 4.29687,0 4.29687,-2.5312 0,-0.8906 -0.76562,-1.5469 -0.76563,-0.6562 -3.53125,-1.6562 -3.64063,-1.3594 -4.59375,-2.4844 -0.9375,-1.1406 -0.9375,-2.6875 0,-2.125 1.73437,-3.3281 1.75,-1.2188 4.82813,-1.2188 3.09375,0 5.76562,1.1563 l -0.9375,2.3281 q -2.84375,-1.125 -4.98437,-1.125 -3.6875,0 -3.6875,2.0781 0,0.9531 0.78125,1.5313 0.79687,0.5625 3.64062,1.5781 3.29688,1.2031 4.375,2.375 1.09375,1.1562 1.09375,2.8437 0,2.3438 -1.82812,3.6875 -1.82813,1.3282 -5.17188,1.3282 -3.875,0 -5.85937,-1.0782 z"
         style="font-family:'Borg Sans Mono';-inkscape-font-specification:'Borg Sans Mono'"
         id="path4042" /><path
         d="m 464.00879,1996.4082 v 2.1563 q -2.03125,0.5 -3.9375,0.5 -5.65625,0 -5.65625,-5.375 v -9.9532 h -4.17188 v -1.4687 l 4.17188,-0.7656 1.20312,-4.4844 h 1.64063 v 4.5781 h 6.84375 v 2.1406 h -6.84375 v 9.9532 q 0,3.0468 3,3.0468 1.45312,0 3.75,-0.3281 z"
         style="font-family:'Borg Sans Mono';-inkscape-font-specification:'Borg Sans Mono'"
         id="path4044" /><path
         d="m 481.25879,1998.752 -0.57813,-2.375 h -0.125 q -1.20312,1.5156 -2.46875,2.1093 -1.26562,0.5782 -3.26562,0.5782 -2.54688,0 -4,-1.3438 -1.4375,-1.3437 -1.4375,-3.7656 0,-5.1875 7.96875,-5.4375 l 3.17187,-0.1094 v -1.0781 q 0,-3.6875 -3.8125,-3.6875 -2.29687,0 -5.125,1.2812 l -0.98437,-2.1406 q 3.0625,-1.5 5.98437,-1.5 3.54688,0 5.125,1.3594 1.59375,1.3594 1.59375,4.3594 v 11.75 z m -0.76563,-8.3907 -2.53125,0.1094 q -3.0625,0.125 -4.34375,0.9688 -1.28125,0.8281 -1.28125,2.5468 0,2.7813 3.125,2.7813 2.29688,0 3.65625,-1.2656 1.375,-1.2813 1.375,-3.5938 z"
         style="font-family:'Borg Sans Mono';-inkscape-font-specification:'Borg Sans Mono'"
         id="path4046" /><path
         d="m 503.02441,1981.9863 -0.76562,2.5938 q -1.92188,-0.7031 -3.5,-0.7031 -2.54688,0 -3.9375,1.4531 -1.375,1.4375 -1.375,4.1719 v 9.25 h -2.84375 v -17.1563 h 2.3125 l 0.34375,3.1406 h 0.125 q 1.1875,-1.8593 2.54687,-2.6562 1.35938,-0.7969 3.34375,-0.7969 1.84375,0 3.75,0.7031 z"
         style="font-family:'Borg Sans Mono';-inkscape-font-specification:'Borg Sans Mono'"
         id="path4048" /><path
         d="m 519.69629,1996.4551 h -0.125 q -1.76563,2.6094 -5.03125,2.6094 -3.14063,0 -4.9375,-2.3282 -1.78125,-2.3437 -1.78125,-6.5312 0,-4.2188 1.79687,-6.5625 1.79688,-2.3594 4.92188,-2.3594 3.21875,0 5.03125,2.5 h 0.1875 q -0.1875,-2.0156 -0.1875,-2.5312 v -6.8125 h 2.84375 v 24.3125 h -2.29688 z m -0.125,-5.6094 v -0.6406 q 0,-3.5469 -1.09375,-5.0469 -1.07813,-1.5156 -3.45313,-1.5156 -4.25,0 -4.25,6.5937 0,6.4688 4.28125,6.4688 2.375,0 3.40625,-1.375 1.04688,-1.3906 1.10938,-4.4844 z"
         style="font-family:'Borg Sans Mono';-inkscape-font-specification:'Borg Sans Mono'"
         id="path4050" /><path
         d="m 534.41504,1999.0645 q -3.375,0 -5.5625,-2.4219 -2.17188,-2.4375 -2.17188,-6.5 0,-4.1094 2.10938,-6.4844 2.125,-2.375 5.71875,-2.375 3.40625,0 5.57812,2.4219 2.17188,2.4219 2.17188,6.4375 0,4.1406 -2.14063,6.5312 -2.14062,2.3907 -5.70312,2.3907 z m 0.0625,-2.3594 q 4.84375,0 4.84375,-6.5625 0,-6.5 -4.875,-6.5 -4.82813,0 -4.82813,6.5 0,6.5625 4.85938,6.5625 z"
         style="font-family:'Borg Sans Mono';-inkscape-font-specification:'Borg Sans Mono'"
         id="path4052" /><path
         d="m 549.39941,1996.5801 h -0.1875 q 0.1875,2.0156 0.1875,2.5312 v 7.3282 h -2.84375 v -24.8438 h 2.29688 l 0.42187,2.3125 h 0.125 q 1.71875,-2.625 5.03125,-2.625 3.14063,0 4.92188,2.3438 1.79687,2.3281 1.79687,6.5156 0,4.2187 -1.79687,6.5781 -1.79688,2.3438 -4.92188,2.3438 -3.23437,0 -5.03125,-2.4844 z m 0,-7.0781 v 0.6406 q 0,3.5469 1.07813,5.0625 1.09375,1.5 3.46875,1.5 4.25,0 4.25,-6.5938 0,-6.4687 -4.28125,-6.4687 -2.375,0 -3.42188,1.375 -1.03125,1.375 -1.09375,4.4844 z"
         style="font-family:'Borg Sans Mono';-inkscape-font-specification:'Borg Sans Mono'"
         id="path4054" /><path
         d="m 580.41504,1990.7207 h -12.09375 q 0.125,5.8594 5.375,5.8594 3.04687,0 5.78125,-1.1875 v 2.5 q -2.59375,1.1719 -5.6875,1.1719 -3.82813,0 -6.125,-2.3282 -2.29688,-2.3437 -2.29688,-6.4375 0,-4.1562 2.10938,-6.5781 2.125,-2.4375 5.67187,-2.4375 3.3125,0 5.28125,2.0938 1.98438,2.0937 1.98438,5.5781 z m -12.03125,-2.3125 h 8.95312 q 0,-4.7656 -4.25,-4.7656 -4.29687,0 -4.70312,4.7656 z"
         style="font-family:'Borg Sans Mono';-inkscape-font-specification:'Borg Sans Mono'"
         id="path4056" /><path
         d="m 599.04004,1981.9863 -0.76563,2.5938 q -1.92187,-0.7031 -3.5,-0.7031 -2.54687,0 -3.9375,1.4531 -1.375,1.4375 -1.375,4.1719 v 9.25 h -2.84375 v -17.1563 h 2.3125 l 0.34375,3.1406 h 0.125 q 1.1875,-1.8593 2.54688,-2.6562 1.35937,-0.7969 3.34375,-0.7969 1.84375,0 3.75,0.7031 z"
         style="font-family:'Borg Sans Mono';-inkscape-font-specification:'Borg Sans Mono'"
         id="path4058" /><path
         d="m 615.68066,1998.752 -0.57812,-2.375 h -0.125 q -1.20313,1.5156 -2.46875,2.1093 -1.26563,0.5782 -3.26563,0.5782 -2.54687,0 -4,-1.3438 -1.4375,-1.3437 -1.4375,-3.7656 0,-5.1875 7.96875,-5.4375 l 3.17188,-0.1094 v -1.0781 q 0,-3.6875 -3.8125,-3.6875 -2.29688,0 -5.125,1.2812 l -0.98438,-2.1406 q 3.0625,-1.5 5.98438,-1.5 3.54687,0 5.125,1.3594 1.59375,1.3594 1.59375,4.3594 v 11.75 z m -0.76562,-8.3907 -2.53125,0.1094 q -3.0625,0.125 -4.34375,0.9688 -1.28125,0.8281 -1.28125,2.5468 0,2.7813 3.125,2.7813 2.29687,0 3.65625,-1.2656 1.375,-1.2813 1.375,-3.5938 z"
         style="font-family:'Borg Sans Mono';-inkscape-font-specification:'Borg Sans Mono'"
         id="path4060" /><path
         d="m 636.83691,1996.4082 v 2.1563 q -2.03125,0.5 -3.9375,0.5 -5.65625,0 -5.65625,-5.375 v -9.9532 h -4.17187 v -1.4687 l 4.17187,-0.7656 1.20313,-4.4844 h 1.64062 v 4.5781 h 6.84375 v 2.1406 h -6.84375 v 9.9532 q 0,3.0468 3,3.0468 1.45313,0 3.75,-0.3281 z"
         style="font-family:'Borg Sans Mono';-inkscape-font-specification:'Borg Sans Mono'"
         id="path4062" /><path
         d="m 649.63379,1999.0645 q -3.375,0 -5.5625,-2.4219 -2.17188,-2.4375 -2.17188,-6.5 0,-4.1094 2.10938,-6.4844 2.125,-2.375 5.71875,-2.375 3.40625,0 5.57812,2.4219 2.17188,2.4219 2.17188,6.4375 0,4.1406 -2.14063,6.5312 -2.14062,2.3907 -5.70312,2.3907 z m 0.0625,-2.3594 q 4.84375,0 4.84375,-6.5625 0,-6.5 -4.875,-6.5 -4.82813,0 -4.82813,6.5 0,6.5625 4.85938,6.5625 z"
         style="font-family:'Borg Sans Mono';-inkscape-font-specification:'Borg Sans Mono'"
         id="path4064" /><path
         d="m 675.85254,1981.9863 -0.76563,2.5938 q -1.92187,-0.7031 -3.5,-0.7031 -2.54687,0 -3.9375,1.4531 -1.375,1.4375 -1.375,4.1719 v 9.25 h -2.84375 v -17.1563 h 2.3125 l 0.34375,3.1406 h 0.125 q 1.1875,-1.8593 2.54688,-2.6562 1.35937,-0.7969 3.34375,-0.7969 1.84375,0 3.75,0.7031 z"
         style="font-family:'Borg Sans Mono';-inkscape-font-specification:'Borg Sans Mono'"
         id="path4066" /></g><g
       aria-label="LDBO"
       transform="matrix(0.26458333,0,0,0.26458333,-77.88289,30.077502)"
       id="text1945"
       style="font-size:164px;line-height:1.25;font-family:Alef;-inkscape-font-specification:Alef;text-align:center;letter-spacing:0px;word-spacing:0px;white-space:pre;shape-inside:url(#rect1947)"><path
         d="m 481.14258,1981.3359 v -117.0742 h 14.97461 v 103.7813 h 50.84961 v 13.2929 z"
         style="font-weight:bold;font-family:'Borg Sans Mono';-inkscape-font-specification:'Borg Sans Mono Bold'"
         id="path4001" /><path
         d="m 571.71094,1981.3359 v -117.0742 h 27.38672 q 25.38476,0 39.47851,15.1348 14.17383,15.1348 14.17383,42.2812 0,28.9082 -14.6543,44.2832 -14.65429,15.375 -42.28125,15.375 z m 14.97461,-104.3418 v 91.5293 h 7.6875 q 42.60156,0 42.60156,-46.3652 0,-45.1641 -39.47852,-45.1641 z"
         style="font-weight:bold;font-family:'Borg Sans Mono';-inkscape-font-specification:'Borg Sans Mono Bold'"
         id="path4003" /><path
         d="m 670.12695,1864.2617 h 35.23438 q 21.9414,0 31.79101,7.0469 9.92969,6.9668 9.92969,22.582 0,10.25 -6.32617,17.0567 -6.24609,6.8066 -16.97656,8.248 v 0.8008 q 26.58593,4.3242 26.58593,27.3867 0,15.8555 -10.25,24.9043 -10.16992,9.0488 -27.78711,9.0488 h -42.20117 z m 14.97461,49.6485 h 22.74219 q 12.49219,0 18.17773,-4.4043 5.76563,-4.4043 5.76563,-14.5743 0,-9.6093 -6.16602,-13.7734 -6.08593,-4.1641 -19.3789,-4.1641 h -21.14063 z m 0,12.4921 v 42.2813 h 24.58399 q 24.90429,0 24.90429,-21.9414 0,-20.3399 -25.94531,-20.3399 z"
         style="font-weight:bold;font-family:'Borg Sans Mono';-inkscape-font-specification:'Borg Sans Mono Bold'"
         id="path4005" /><path
         d="m 807.06055,1982.9375 q -42.60157,0 -42.60157,-60.459 0,-60.0586 42.76172,-60.0586 20.5,0 31.39063,15.6953 10.9707,15.6153 10.9707,44.5235 0,28.9082 -11.05078,44.6035 -11.05078,15.6953 -31.4707,15.6953 z m 0,-13.0527 q 13.85351,0 20.25976,-11.6114 6.48633,-11.6113 6.48633,-35.6347 0,-24.2637 -6.56641,-35.6348 -6.48632,-11.4512 -20.01953,-11.4512 -26.98633,0 -26.98633,47.086 0,47.2461 26.82618,47.2461 z"
         style="font-weight:bold;font-family:'Borg Sans Mono';-inkscape-font-specification:'Borg Sans Mono Bold'"
         id="path4007" /></g></g></svg>
